<svg xmlns="http://www.w3.org/2000/svg" width="320" height="180" viewBox="0 0 320 180">
  <defs>
    <linearGradient id="g_proposal" x1="0%" y1="0%" x2="100%" y2="100%">
      <stop offset="0%" stop-color="#667EEA"/>
      <stop offset="100%" stop-color="#764BA2"/>
    </linearGradient>
  </defs>
  <rect width="320" height="180" fill="url(#g_proposal)"/>
  <!-- Abstract geometric pattern -->
  <rect x="20" y="20" width="60" height="40" rx="4" fill="#FFFFFF" opacity="0.15"/>
  <rect x="90" y="30" width="80" height="50" rx="4" fill="#FFFFFF" opacity="0.1"/>
  <rect x="180" y="15" width="100" height="60" rx="4" fill="#FFFFFF" opacity="0.08"/>
  <rect x="30" y="80" width="120" height="70" rx="4" fill="#FFFFFF" opacity="0.12"/>
  <rect x="170" y="90" width="90" height="60" rx="4" fill="#FFFFFF" opacity="0.1"/>
  <!-- Title bar simulation -->
  <rect x="20" y="20" width="280" height="30" rx="4" fill="#FFFFFF" opacity="0.25"/>
  <rect x="20" y="60" width="180" height="15" rx="3" fill="#FFFFFF" opacity="0.2"/>
  <rect x="20" y="82" width="140" height="15" rx="3" fill="#FFFFFF" opacity="0.15"/>
  <rect x="20" y="104" width="200" height="15" rx="3" fill="#FFFFFF" opacity="0.12"/>
  <rect x="20" y="126" width="160" height="15" rx="3" fill="#FFFFFF" opacity="0.1"/>
  <!-- Bottom accent -->
  <rect x="0" y="165" width="320" height="15" fill="#FFFFFF" opacity="0.08"/>
  <!-- Label -->
  <text x="160" y="100" text-anchor="middle" font-family="sans-serif" font-size="11" fill="#FFFFFF" opacity="0.5">项目提案</text>
</svg>