<?xml version="1.0" encoding="utf-8" standalone="no"?>
<!DOCTYPE svg PUBLIC "-//W3C//DTD SVG 1.1//EN"
  "http://www.w3.org/Graphics/SVG/1.1/DTD/svg11.dtd">
<svg xmlns:xlink="http://www.w3.org/1999/xlink" width="568.8075pt" height="352.440615pt" viewBox="0 0 568.8075 352.440615" xmlns="http://www.w3.org/2000/svg" version="1.1">
 <metadata>
  <rdf:RDF xmlns:dc="http://purl.org/dc/elements/1.1/" xmlns:cc="http://creativecommons.org/ns#" xmlns:rdf="http://www.w3.org/1999/02/22-rdf-syntax-ns#">
   <cc:Work>
    <dc:type rdf:resource="http://purl.org/dc/dcmitype/StillImage"/>
    <dc:date>2026-04-02T23:41:33.306727</dc:date>
    <dc:format>image/svg+xml</dc:format>
    <dc:creator>
     <cc:Agent>
      <dc:title>Matplotlib v3.10.8, https://matplotlib.org/</dc:title>
     </cc:Agent>
    </dc:creator>
   </cc:Work>
  </rdf:RDF>
 </metadata>
 <defs>
  <style type="text/css">*{stroke-linejoin: round; stroke-linecap: butt}</style>
 </defs>
 <g id="figure_1">
  <g id="patch_1">
   <path d="M 0 352.440615 
L 568.8075 352.440615 
L 568.8075 0 
L 0 0 
z
" style="fill: #ffffff"/>
  </g>
  <g id="axes_1">
   <g id="patch_2">
    <path d="M 33.2875 322.654435 
L 561.6075 322.654435 
L 561.6075 21.25 
L 33.2875 21.25 
z
" style="fill: #ffffff"/>
   </g>
   <g id="patch_3">
    <path d="M 57.302045 322.654435 
L 194.528019 322.654435 
L 194.528019 179.128514 
L 57.302045 179.128514 
z
" clip-path="url(#p761dcb8443)" style="fill: #165dff"/>
   </g>
   <g id="patch_4">
    <path d="M 228.834513 322.654435 
L 366.060487 322.654435 
L 366.060487 107.365553 
L 228.834513 107.365553 
z
" clip-path="url(#p761dcb8443)" style="fill: #165dff"/>
   </g>
   <g id="patch_5">
    <path d="M 400.366981 322.654435 
L 537.592955 322.654435 
L 537.592955 35.602592 
L 400.366981 35.602592 
z
" clip-path="url(#p761dcb8443)" style="fill: #165dff"/>
   </g>
   <g id="matplotlib.axis_1">
    <g id="xtick_1">
     <g id="line2d_1">
      <defs>
       <path id="mef91c59fb3" d="M 0 0 
L 0 3.5 
" style="stroke: #000000; stroke-width: 0.8"/>
      </defs>
      <g>
       <use xlink:href="#mef91c59fb3" x="125.915032" y="322.654435" style="stroke: #000000; stroke-width: 0.8"/>
      </g>
     </g>
     <g id="text_1">
      <!-- 1月 -->
      <g transform="translate(115.701759 343.770054) rotate(-45) scale(0.1 -0.1)">
       <defs>
        <path id="DejaVuSans-31" d="M 794 531 
L 1825 531 
L 1825 4091 
L 703 3866 
L 703 4441 
L 1819 4666 
L 2450 4666 
L 2450 531 
L 3481 531 
L 3481 0 
L 794 0 
L 794 531 
z
" transform="scale(0.015625)"/>
        <path id="DejaVuSans-6708" d="M 319 -1131 
L 319 4513 
L 3519 4513 
L 3519 -1131 
L 319 -1131 
z
M 678 -775 
L 3163 -775 
L 3163 4153 
L 678 4153 
L 678 -775 
z
" transform="scale(0.015625)"/>
       </defs>
       <use xlink:href="#DejaVuSans-31"/>
       <use xlink:href="#DejaVuSans-6708" transform="translate(63.623047 0)"/>
      </g>
     </g>
    </g>
    <g id="xtick_2">
     <g id="line2d_2">
      <g>
       <use xlink:href="#mef91c59fb3" x="297.4475" y="322.654435" style="stroke: #000000; stroke-width: 0.8"/>
      </g>
     </g>
     <g id="text_2">
      <!-- 2月 -->
      <g transform="translate(287.234226 343.770054) rotate(-45) scale(0.1 -0.1)">
       <defs>
        <path id="DejaVuSans-32" d="M 1228 531 
L 3431 531 
L 3431 0 
L 469 0 
L 469 531 
Q 828 903 1448 1529 
Q 2069 2156 2228 2338 
Q 2531 2678 2651 2914 
Q 2772 3150 2772 3378 
Q 2772 3750 2511 3984 
Q 2250 4219 1831 4219 
Q 1534 4219 1204 4116 
Q 875 4013 500 3803 
L 500 4441 
Q 881 4594 1212 4672 
Q 1544 4750 1819 4750 
Q 2544 4750 2975 4387 
Q 3406 4025 3406 3419 
Q 3406 3131 3298 2873 
Q 3191 2616 2906 2266 
Q 2828 2175 2409 1742 
Q 1991 1309 1228 531 
z
" transform="scale(0.015625)"/>
       </defs>
       <use xlink:href="#DejaVuSans-32"/>
       <use xlink:href="#DejaVuSans-6708" transform="translate(63.623047 0)"/>
      </g>
     </g>
    </g>
    <g id="xtick_3">
     <g id="line2d_3">
      <g>
       <use xlink:href="#mef91c59fb3" x="468.979968" y="322.654435" style="stroke: #000000; stroke-width: 0.8"/>
      </g>
     </g>
     <g id="text_3">
      <!-- 3月 -->
      <g transform="translate(458.766694 343.770054) rotate(-45) scale(0.1 -0.1)">
       <defs>
        <path id="DejaVuSans-33" d="M 2597 2516 
Q 3050 2419 3304 2112 
Q 3559 1806 3559 1356 
Q 3559 666 3084 287 
Q 2609 -91 1734 -91 
Q 1441 -91 1130 -33 
Q 819 25 488 141 
L 488 750 
Q 750 597 1062 519 
Q 1375 441 1716 441 
Q 2309 441 2620 675 
Q 2931 909 2931 1356 
Q 2931 1769 2642 2001 
Q 2353 2234 1838 2234 
L 1294 2234 
L 1294 2753 
L 1863 2753 
Q 2328 2753 2575 2939 
Q 2822 3125 2822 3475 
Q 2822 3834 2567 4026 
Q 2313 4219 1838 4219 
Q 1578 4219 1281 4162 
Q 984 4106 628 3988 
L 628 4550 
Q 988 4650 1302 4700 
Q 1616 4750 1894 4750 
Q 2613 4750 3031 4423 
Q 3450 4097 3450 3541 
Q 3450 3153 3228 2886 
Q 3006 2619 2597 2516 
z
" transform="scale(0.015625)"/>
       </defs>
       <use xlink:href="#DejaVuSans-33"/>
       <use xlink:href="#DejaVuSans-6708" transform="translate(63.623047 0)"/>
      </g>
     </g>
    </g>
   </g>
   <g id="matplotlib.axis_2">
    <g id="ytick_1">
     <g id="line2d_4">
      <defs>
       <path id="ma726f6f87b" d="M 0 0 
L -3.5 0 
" style="stroke: #000000; stroke-width: 0.8"/>
      </defs>
      <g>
       <use xlink:href="#ma726f6f87b" x="33.2875" y="322.654435" style="stroke: #000000; stroke-width: 0.8"/>
      </g>
     </g>
     <g id="text_4">
      <!-- 0 -->
      <g transform="translate(19.925 326.453654) scale(0.1 -0.1)">
       <defs>
        <path id="DejaVuSans-30" d="M 2034 4250 
Q 1547 4250 1301 3770 
Q 1056 3291 1056 2328 
Q 1056 1369 1301 889 
Q 1547 409 2034 409 
Q 2525 409 2770 889 
Q 3016 1369 3016 2328 
Q 3016 3291 2770 3770 
Q 2525 4250 2034 4250 
z
M 2034 4750 
Q 2819 4750 3233 4129 
Q 3647 3509 3647 2328 
Q 3647 1150 3233 529 
Q 2819 -91 2034 -91 
Q 1250 -91 836 529 
Q 422 1150 422 2328 
Q 422 3509 836 4129 
Q 1250 4750 2034 4750 
z
" transform="scale(0.015625)"/>
       </defs>
       <use xlink:href="#DejaVuSans-30"/>
      </g>
     </g>
    </g>
    <g id="ytick_2">
     <g id="line2d_5">
      <g>
       <use xlink:href="#ma726f6f87b" x="33.2875" y="286.772955" style="stroke: #000000; stroke-width: 0.8"/>
      </g>
     </g>
     <g id="text_5">
      <!-- 25 -->
      <g transform="translate(13.5625 290.572173) scale(0.1 -0.1)">
       <defs>
        <path id="DejaVuSans-35" d="M 691 4666 
L 3169 4666 
L 3169 4134 
L 1269 4134 
L 1269 2991 
Q 1406 3038 1543 3061 
Q 1681 3084 1819 3084 
Q 2600 3084 3056 2656 
Q 3513 2228 3513 1497 
Q 3513 744 3044 326 
Q 2575 -91 1722 -91 
Q 1428 -91 1123 -41 
Q 819 9 494 109 
L 494 744 
Q 775 591 1075 516 
Q 1375 441 1709 441 
Q 2250 441 2565 725 
Q 2881 1009 2881 1497 
Q 2881 1984 2565 2268 
Q 2250 2553 1709 2553 
Q 1456 2553 1204 2497 
Q 953 2441 691 2322 
L 691 4666 
z
" transform="scale(0.015625)"/>
       </defs>
       <use xlink:href="#DejaVuSans-32"/>
       <use xlink:href="#DejaVuSans-35" transform="translate(63.623047 0)"/>
      </g>
     </g>
    </g>
    <g id="ytick_3">
     <g id="line2d_6">
      <g>
       <use xlink:href="#ma726f6f87b" x="33.2875" y="250.891474" style="stroke: #000000; stroke-width: 0.8"/>
      </g>
     </g>
     <g id="text_6">
      <!-- 50 -->
      <g transform="translate(13.5625 254.690693) scale(0.1 -0.1)">
       <use xlink:href="#DejaVuSans-35"/>
       <use xlink:href="#DejaVuSans-30" transform="translate(63.623047 0)"/>
      </g>
     </g>
    </g>
    <g id="ytick_4">
     <g id="line2d_7">
      <g>
       <use xlink:href="#ma726f6f87b" x="33.2875" y="215.009994" style="stroke: #000000; stroke-width: 0.8"/>
      </g>
     </g>
     <g id="text_7">
      <!-- 75 -->
      <g transform="translate(13.5625 218.809213) scale(0.1 -0.1)">
       <defs>
        <path id="DejaVuSans-37" d="M 525 4666 
L 3525 4666 
L 3525 4397 
L 1831 0 
L 1172 0 
L 2766 4134 
L 525 4134 
L 525 4666 
z
" transform="scale(0.015625)"/>
       </defs>
       <use xlink:href="#DejaVuSans-37"/>
       <use xlink:href="#DejaVuSans-35" transform="translate(63.623047 0)"/>
      </g>
     </g>
    </g>
    <g id="ytick_5">
     <g id="line2d_8">
      <g>
       <use xlink:href="#ma726f6f87b" x="33.2875" y="179.128514" style="stroke: #000000; stroke-width: 0.8"/>
      </g>
     </g>
     <g id="text_8">
      <!-- 100 -->
      <g transform="translate(7.2 182.927732) scale(0.1 -0.1)">
       <use xlink:href="#DejaVuSans-31"/>
       <use xlink:href="#DejaVuSans-30" transform="translate(63.623047 0)"/>
       <use xlink:href="#DejaVuSans-30" transform="translate(127.246094 0)"/>
      </g>
     </g>
    </g>
    <g id="ytick_6">
     <g id="line2d_9">
      <g>
       <use xlink:href="#ma726f6f87b" x="33.2875" y="143.247033" style="stroke: #000000; stroke-width: 0.8"/>
      </g>
     </g>
     <g id="text_9">
      <!-- 125 -->
      <g transform="translate(7.2 147.046252) scale(0.1 -0.1)">
       <use xlink:href="#DejaVuSans-31"/>
       <use xlink:href="#DejaVuSans-32" transform="translate(63.623047 0)"/>
       <use xlink:href="#DejaVuSans-35" transform="translate(127.246094 0)"/>
      </g>
     </g>
    </g>
    <g id="ytick_7">
     <g id="line2d_10">
      <g>
       <use xlink:href="#ma726f6f87b" x="33.2875" y="107.365553" style="stroke: #000000; stroke-width: 0.8"/>
      </g>
     </g>
     <g id="text_10">
      <!-- 150 -->
      <g transform="translate(7.2 111.164772) scale(0.1 -0.1)">
       <use xlink:href="#DejaVuSans-31"/>
       <use xlink:href="#DejaVuSans-35" transform="translate(63.623047 0)"/>
       <use xlink:href="#DejaVuSans-30" transform="translate(127.246094 0)"/>
      </g>
     </g>
    </g>
    <g id="ytick_8">
     <g id="line2d_11">
      <g>
       <use xlink:href="#ma726f6f87b" x="33.2875" y="71.484073" style="stroke: #000000; stroke-width: 0.8"/>
      </g>
     </g>
     <g id="text_11">
      <!-- 175 -->
      <g transform="translate(7.2 75.283291) scale(0.1 -0.1)">
       <use xlink:href="#DejaVuSans-31"/>
       <use xlink:href="#DejaVuSans-37" transform="translate(63.623047 0)"/>
       <use xlink:href="#DejaVuSans-35" transform="translate(127.246094 0)"/>
      </g>
     </g>
    </g>
    <g id="ytick_9">
     <g id="line2d_12">
      <g>
       <use xlink:href="#ma726f6f87b" x="33.2875" y="35.602592" style="stroke: #000000; stroke-width: 0.8"/>
      </g>
     </g>
     <g id="text_12">
      <!-- 200 -->
      <g transform="translate(7.2 39.401811) scale(0.1 -0.1)">
       <use xlink:href="#DejaVuSans-32"/>
       <use xlink:href="#DejaVuSans-30" transform="translate(63.623047 0)"/>
       <use xlink:href="#DejaVuSans-30" transform="translate(127.246094 0)"/>
      </g>
     </g>
    </g>
   </g>
   <g id="patch_6">
    <path d="M 33.2875 322.654435 
L 33.2875 21.25 
" style="fill: none; stroke: #000000; stroke-width: 0.8; stroke-linejoin: miter; stroke-linecap: square"/>
   </g>
   <g id="patch_7">
    <path d="M 561.6075 322.654435 
L 561.6075 21.25 
" style="fill: none; stroke: #000000; stroke-width: 0.8; stroke-linejoin: miter; stroke-linecap: square"/>
   </g>
   <g id="patch_8">
    <path d="M 33.2875 322.654435 
L 561.6075 322.654435 
" style="fill: none; stroke: #000000; stroke-width: 0.8; stroke-linejoin: miter; stroke-linecap: square"/>
   </g>
   <g id="patch_9">
    <path d="M 33.2875 21.25 
L 561.6075 21.25 
" style="fill: none; stroke: #000000; stroke-width: 0.8; stroke-linejoin: miter; stroke-linecap: square"/>
   </g>
   <g id="text_13">
    <!-- 月份 - 销售额 -->
    <g transform="translate(268.287344 15.25) scale(0.1 -0.1)">
     <defs>
      <path id="STHeitiTC-Light-6708" d="M 2182 1594 
Q 2138 902 1901 364 
Q 1664 -173 1235 -640 
Q 1165 -531 1065 -464 
Q 966 -397 800 -371 
Q 1037 -198 1219 29 
Q 1402 256 1526 566 
Q 1651 877 1712 1296 
Q 1773 1715 1773 2272 
L 1773 4000 
Q 1773 4307 1766 4508 
Q 1760 4710 1747 4845 
Q 1856 4838 2115 4832 
Q 2374 4826 2672 4822 
Q 2970 4819 3251 4816 
Q 3533 4813 3686 4813 
Q 3840 4813 4115 4816 
Q 4390 4819 4681 4822 
Q 4973 4826 5229 4832 
Q 5485 4838 5594 4845 
Q 5587 4730 5584 4640 
Q 5581 4550 5577 4457 
Q 5574 4365 5574 4259 
Q 5574 4154 5574 4000 
L 5574 147 
Q 5574 -77 5536 -217 
Q 5498 -358 5357 -435 
Q 5216 -512 4950 -541 
Q 4685 -570 4224 -570 
Q 4250 -397 4211 -281 
Q 4173 -166 4026 -38 
Q 4378 -96 4602 -112 
Q 4826 -128 4947 -93 
Q 5069 -58 5113 28 
Q 5158 115 5158 262 
L 5158 1594 
L 2182 1594 
z
M 5158 3347 
L 5158 4493 
L 2189 4493 
L 2189 3347 
L 5158 3347 
z
M 2189 3040 
L 2189 1907 
L 5158 1907 
L 5158 3040 
L 2189 3040 
z
" transform="scale(0.015625)"/>
      <path id="STHeitiTC-Light-4efd" d="M 1178 3232 
Q 1043 3002 899 2787 
Q 755 2573 589 2349 
Q 416 2547 218 2611 
Q 442 2842 662 3162 
Q 883 3482 1075 3834 
Q 1267 4186 1420 4547 
Q 1574 4909 1670 5222 
Q 1760 5152 1869 5104 
Q 1978 5056 2074 5050 
Q 2182 5043 2192 4992 
Q 2202 4941 2118 4896 
Q 2048 4858 1910 4637 
Q 1773 4416 1568 3994 
L 1568 -640 
L 1107 -640 
Q 1139 -365 1158 -51 
Q 1178 262 1178 608 
L 1178 3232 
z
M 2643 2669 
Q 2406 2342 2182 2118 
Q 2029 2291 1811 2355 
Q 2093 2605 2307 2854 
Q 2522 3104 2682 3395 
Q 2842 3686 2960 4038 
Q 3078 4390 3168 4845 
Q 3386 4749 3616 4698 
Q 3699 4685 3699 4637 
Q 3699 4589 3616 4550 
Q 3578 4531 3546 4508 
Q 3514 4486 3485 4441 
Q 3456 4397 3427 4320 
Q 3398 4243 3354 4122 
Q 3270 3885 3193 3689 
Q 3117 3494 3037 3328 
Q 2957 3162 2867 3008 
Q 2778 2854 2669 2701 
Q 2752 2694 2864 2688 
Q 2976 2682 3133 2678 
Q 3290 2675 3504 2672 
Q 3718 2669 4019 2669 
Q 4582 2669 4905 2681 
Q 5229 2694 5382 2714 
Q 5370 2637 5360 2563 
Q 5350 2490 5344 2400 
Q 5338 2310 5334 2201 
Q 5331 2093 5325 1946 
L 5274 531 
Q 5261 282 5219 118 
Q 5178 -45 5053 -150 
Q 4928 -256 4697 -320 
Q 4467 -384 4083 -435 
Q 4070 -301 4016 -179 
Q 3962 -58 3834 83 
Q 4166 45 4371 41 
Q 4576 38 4691 92 
Q 4806 147 4848 259 
Q 4890 371 4896 563 
L 4954 2362 
L 3680 2362 
Q 3674 1805 3606 1379 
Q 3539 954 3376 614 
Q 3213 275 2934 3 
Q 2656 -269 2227 -525 
Q 2176 -403 2080 -307 
Q 1984 -211 1830 -141 
Q 2278 26 2563 234 
Q 2848 442 3014 736 
Q 3181 1030 3245 1424 
Q 3309 1818 3315 2362 
Q 3091 2362 2928 2352 
Q 2765 2342 2643 2330 
L 2643 2669 
z
M 6176 2637 
Q 6048 2547 5977 2473 
Q 5907 2400 5837 2291 
Q 5581 2522 5385 2752 
Q 5190 2982 5040 3244 
Q 4890 3507 4768 3817 
Q 4646 4128 4538 4525 
Q 4333 4525 4169 4518 
Q 4006 4512 3827 4486 
L 3827 4896 
Q 4269 4838 4800 4896 
Q 4870 4474 4988 4134 
Q 5107 3795 5276 3520 
Q 5446 3245 5670 3030 
Q 5894 2816 6176 2637 
z
" transform="scale(0.015625)"/>
      <path id="STHeitiTC-Light-20" transform="scale(0.015625)"/>
      <path id="STHeitiTC-Light-2d" d="M 205 2368 
L 1920 2368 
L 1920 1920 
L 205 1920 
L 205 2368 
z
" transform="scale(0.015625)"/>
      <path id="STHeitiTC-Light-9500" d="M 1370 3949 
Q 1184 3571 954 3226 
Q 1229 3187 1709 3187 
Q 1978 3187 2198 3200 
Q 2419 3213 2566 3238 
L 2566 2816 
Q 2272 2867 1779 2867 
L 1779 1997 
Q 2054 1997 2284 2009 
Q 2515 2022 2669 2048 
L 2669 1626 
Q 2515 1651 2284 1664 
Q 2054 1677 1779 1677 
L 1779 243 
L 2624 794 
Q 2624 570 2752 422 
L 1946 -90 
Q 1754 -218 1619 -326 
Q 1485 -435 1382 -544 
Q 1331 -429 1276 -349 
Q 1222 -269 1126 -186 
Q 1261 -96 1334 48 
Q 1408 192 1408 422 
L 1408 1677 
Q 1133 1677 918 1664 
Q 704 1651 550 1626 
L 550 2048 
Q 710 2022 924 2009 
Q 1139 1997 1408 1997 
L 1408 2861 
Q 1088 2861 890 2816 
L 890 3136 
Q 832 3046 774 2969 
Q 717 2893 666 2829 
Q 595 2931 515 2982 
Q 435 3034 301 3072 
Q 525 3290 710 3552 
Q 896 3814 1033 4099 
Q 1171 4384 1267 4665 
Q 1363 4947 1414 5203 
Q 1523 5146 1651 5094 
Q 1779 5043 1862 5024 
Q 1952 5005 1958 4953 
Q 1965 4902 1882 4858 
Q 1766 4806 1523 4282 
L 1882 4282 
Q 2042 4282 2157 4282 
Q 2272 4282 2355 4288 
Q 2438 4294 2502 4297 
Q 2566 4301 2637 4314 
L 2637 3917 
Q 2566 3923 2508 3929 
Q 2451 3936 2374 3942 
Q 2298 3949 2182 3949 
Q 2067 3949 1882 3949 
L 1370 3949 
z
M 3443 3667 
Q 3290 3974 3130 4201 
Q 2970 4429 2746 4653 
L 3046 4877 
Q 3270 4627 3449 4393 
Q 3629 4160 3795 3872 
L 3443 3667 
z
M 5997 4474 
Q 5926 4467 5724 4240 
Q 5523 4013 5235 3629 
Q 5094 3770 4890 3795 
Q 5146 4026 5350 4320 
Q 5555 4614 5677 4902 
Q 5786 4813 5869 4752 
Q 5952 4691 6003 4659 
Q 6099 4608 6092 4544 
Q 6086 4480 5997 4474 
z
M 3405 2048 
L 3405 1331 
L 5421 1331 
L 5421 2048 
L 3405 2048 
z
M 5421 2342 
L 5421 3066 
L 3405 3066 
L 3405 2342 
L 5421 2342 
z
M 4211 4467 
Q 4211 4685 4198 4880 
Q 4186 5075 4160 5222 
Q 4333 5197 4451 5190 
Q 4570 5184 4678 5184 
Q 4832 5184 4723 5082 
Q 4672 5030 4637 4921 
Q 4602 4813 4602 4710 
L 4602 3354 
Q 4838 3354 5017 3357 
Q 5197 3360 5341 3366 
Q 5485 3373 5609 3385 
Q 5734 3398 5869 3411 
Q 5843 3206 5830 2956 
Q 5818 2707 5818 2477 
L 5818 -179 
Q 5818 -294 5786 -368 
Q 5754 -442 5648 -486 
Q 5542 -531 5344 -547 
Q 5146 -563 4806 -570 
Q 4806 -416 4748 -310 
Q 4691 -205 4544 -90 
Q 4826 -134 4998 -147 
Q 5171 -160 5264 -141 
Q 5357 -122 5389 -67 
Q 5421 -13 5421 83 
L 5421 1043 
L 3405 1043 
L 3405 -544 
L 2957 -544 
Q 2989 -307 2998 -108 
Q 3008 90 3008 352 
L 3008 2477 
Q 3008 2560 3005 2685 
Q 3002 2810 2995 2944 
Q 2989 3078 2982 3203 
Q 2976 3328 2970 3411 
Q 3270 3379 3555 3366 
Q 3840 3354 4211 3354 
L 4211 4467 
z
" transform="scale(0.015625)"/>
      <path id="STHeitiTC-Light-552e" d="M 5197 819 
L 1990 819 
L 1990 6 
L 5197 6 
L 5197 819 
z
M 1990 -634 
L 1542 -634 
Q 1562 -474 1568 -346 
Q 1574 -218 1574 -58 
L 1574 800 
Q 1574 922 1568 995 
Q 1562 1069 1542 1146 
Q 1670 1146 1836 1142 
Q 2003 1139 2243 1136 
Q 2483 1133 2806 1133 
Q 3130 1133 3578 1133 
Q 4026 1133 4355 1133 
Q 4685 1133 4925 1136 
Q 5165 1139 5331 1142 
Q 5498 1146 5626 1146 
Q 5613 1075 5613 1008 
Q 5613 941 5613 800 
L 5613 38 
Q 5613 -128 5619 -256 
Q 5626 -384 5645 -544 
L 5197 -544 
L 5197 -307 
L 1990 -307 
L 1990 -634 
z
M 3584 2426 
L 1843 2426 
L 1843 1907 
L 3584 1907 
L 3584 2426 
z
M 1843 3181 
L 1843 2694 
L 3584 2694 
L 3584 3181 
L 1843 3181 
z
M 3910 4256 
Q 4358 4256 4707 4259 
Q 5056 4262 5318 4268 
Q 5581 4275 5766 4284 
Q 5952 4294 6080 4307 
L 6080 3930 
Q 5952 3942 5773 3952 
Q 5594 3962 5341 3968 
Q 5088 3974 4749 3977 
Q 4410 3981 3968 3981 
L 3968 3450 
Q 4403 3450 4691 3453 
Q 4979 3456 5174 3459 
Q 5370 3462 5498 3472 
Q 5626 3482 5741 3501 
L 5741 3130 
Q 5626 3142 5498 3152 
Q 5370 3162 5174 3168 
Q 4979 3174 4691 3177 
Q 4403 3181 3968 3181 
L 3968 2694 
Q 4397 2694 4685 2697 
Q 4973 2701 5168 2707 
Q 5363 2714 5494 2723 
Q 5626 2733 5741 2746 
L 5741 2374 
Q 5626 2387 5494 2396 
Q 5363 2406 5168 2412 
Q 4973 2419 4685 2422 
Q 4397 2426 3968 2426 
L 3968 1907 
Q 4422 1907 4764 1910 
Q 5107 1914 5356 1920 
Q 5606 1926 5776 1936 
Q 5946 1946 6061 1958 
L 6061 1600 
Q 5946 1613 5773 1622 
Q 5600 1632 5341 1638 
Q 5082 1645 4730 1648 
Q 4378 1651 3904 1651 
L 1843 1651 
L 1843 1338 
L 1395 1338 
Q 1440 1606 1456 1852 
Q 1472 2099 1472 2349 
L 1472 3642 
Q 1312 3411 1126 3168 
Q 941 2925 723 2669 
Q 627 2810 547 2864 
Q 467 2918 314 2950 
Q 544 3110 793 3376 
Q 1043 3642 1267 3968 
Q 1491 4294 1673 4656 
Q 1856 5018 1958 5370 
Q 2067 5293 2163 5235 
Q 2259 5178 2374 5114 
Q 2464 5062 2457 5020 
Q 2451 4979 2342 4909 
Q 2310 4890 2278 4861 
Q 2246 4832 2195 4761 
Q 2144 4691 2064 4569 
Q 1984 4448 1869 4256 
L 3910 4256 
z
M 1843 3981 
L 1843 3450 
L 3584 3450 
L 3584 3981 
L 1843 3981 
z
M 3974 4326 
Q 3904 4403 3808 4502 
Q 3712 4602 3597 4701 
Q 3482 4800 3363 4889 
Q 3245 4979 3142 5043 
L 3392 5318 
Q 3648 5158 3878 4979 
Q 4109 4800 4282 4634 
L 3974 4326 
z
" transform="scale(0.015625)"/>
      <path id="STHeitiTC-Light-989d" d="M 5882 -544 
Q 5798 -429 5660 -278 
Q 5523 -128 5363 22 
Q 5203 173 5033 310 
Q 4864 448 4717 550 
L 4915 813 
Q 5056 704 5229 563 
Q 5402 422 5574 272 
Q 5747 122 5904 -19 
Q 6061 -160 6170 -275 
L 5882 -544 
z
M 4954 2829 
Q 4915 2797 4883 2726 
Q 4851 2656 4851 2579 
Q 4851 2432 4844 2265 
Q 4838 2099 4828 1929 
Q 4819 1760 4803 1603 
Q 4787 1446 4768 1325 
Q 4717 992 4617 723 
Q 4518 454 4345 224 
Q 4173 -6 3917 -211 
Q 3661 -416 3296 -627 
Q 3226 -506 3158 -445 
Q 3091 -384 2963 -314 
Q 3347 -147 3603 16 
Q 3859 179 4025 377 
Q 4192 576 4285 819 
Q 4378 1062 4429 1389 
Q 4467 1626 4486 1818 
Q 4506 2010 4506 2189 
Q 4506 2368 4493 2553 
Q 4480 2739 4454 2963 
Q 4582 2931 4694 2924 
Q 4806 2918 4915 2938 
Q 4954 2944 4973 2902 
Q 4992 2861 4954 2829 
z
M 4397 4442 
Q 4102 4442 3814 4429 
Q 3526 4416 3379 4390 
L 3379 4800 
Q 3475 4787 3641 4780 
Q 3808 4774 4000 4764 
Q 4192 4755 4390 4752 
Q 4589 4749 4755 4749 
Q 5216 4749 5574 4761 
Q 5933 4774 6125 4800 
L 6125 4390 
Q 6029 4403 5872 4412 
Q 5715 4422 5526 4428 
Q 5338 4435 5139 4438 
Q 4941 4442 4768 4442 
Q 4730 4269 4698 4048 
Q 4666 3827 4646 3597 
Q 4800 3597 4992 3600 
Q 5184 3603 5363 3606 
Q 5542 3610 5683 3613 
Q 5824 3616 5875 3622 
Q 5869 3526 5862 3440 
Q 5856 3354 5853 3261 
Q 5850 3168 5850 3062 
Q 5850 2957 5850 2822 
L 5850 1728 
Q 5850 1485 5853 1296 
Q 5856 1107 5862 909 
L 5478 909 
L 5478 3296 
L 3859 3296 
L 3859 806 
L 3482 806 
Q 3494 1011 3497 1209 
Q 3501 1408 3501 1645 
L 3501 2848 
Q 3501 3155 3494 3324 
Q 3488 3494 3475 3622 
Q 3507 3622 3596 3619 
Q 3686 3616 3801 3609 
Q 3917 3603 4048 3600 
Q 4179 3597 4307 3597 
Q 4339 3763 4361 3990 
Q 4384 4218 4397 4442 
z
M 2554 1178 
L 1350 1178 
L 1350 365 
L 2554 365 
L 2554 1178 
z
M 2016 2522 
Q 2189 2682 2320 2867 
Q 2451 3053 2509 3238 
L 1414 3238 
Q 1293 3059 1101 2822 
Q 909 2586 704 2374 
Q 602 2470 525 2521 
Q 448 2573 339 2605 
Q 755 2925 1065 3299 
Q 1376 3674 1504 4102 
Q 1600 4038 1689 3996 
Q 1779 3955 1843 3942 
Q 1952 3923 1952 3868 
Q 1952 3814 1830 3776 
Q 1798 3763 1731 3689 
Q 1664 3616 1587 3507 
Q 2246 3507 2576 3516 
Q 2906 3526 3027 3546 
Q 2886 3194 2694 2893 
Q 2502 2592 2298 2387 
Q 2541 2272 2790 2147 
Q 3040 2022 3309 1888 
L 3098 1568 
Q 2822 1741 2560 1891 
Q 2298 2042 2054 2170 
Q 1594 1805 986 1504 
Q 1101 1485 1328 1478 
Q 1555 1472 1946 1472 
Q 2349 1472 2579 1481 
Q 2810 1491 2912 1504 
Q 2906 1414 2902 1305 
Q 2899 1197 2899 998 
L 2899 531 
Q 2899 307 2905 140 
Q 2912 -26 2938 -243 
L 2554 -243 
L 2554 77 
L 1350 77 
L 1350 -339 
L 947 -339 
Q 960 -224 969 -131 
Q 979 -38 985 51 
Q 992 141 995 230 
Q 998 320 998 435 
L 998 998 
Q 998 1171 992 1280 
Q 986 1389 973 1491 
Q 864 1440 752 1385 
Q 640 1331 518 1274 
Q 467 1395 416 1465 
Q 365 1536 224 1606 
Q 627 1715 1014 1888 
Q 1402 2061 1760 2317 
Q 1574 2406 1417 2480 
Q 1261 2554 1133 2611 
L 1293 2861 
Q 1459 2784 1641 2697 
Q 1824 2611 2016 2522 
z
M 1837 4467 
Q 1747 4653 1641 4803 
Q 1536 4954 1395 5082 
L 1702 5299 
Q 1779 5197 1843 5104 
Q 1907 5011 1964 4915 
Q 2022 4819 2083 4710 
Q 2144 4602 2214 4467 
Q 2560 4474 2813 4486 
Q 3066 4499 3328 4525 
Q 3302 4429 3289 4323 
Q 3277 4218 3277 4058 
Q 3277 3936 3289 3840 
Q 3302 3744 3315 3616 
L 2944 3616 
L 2944 4173 
L 826 4173 
L 826 3565 
L 448 3565 
Q 467 3712 476 3811 
Q 486 3910 486 4045 
Q 486 4205 476 4313 
Q 467 4422 448 4525 
Q 602 4506 720 4493 
Q 838 4480 982 4477 
Q 1126 4474 1324 4470 
Q 1523 4467 1837 4467 
z
" transform="scale(0.015625)"/>
     </defs>
     <use xlink:href="#STHeitiTC-Light-6708"/>
     <use xlink:href="#STHeitiTC-Light-4efd" transform="translate(99.999985 0)"/>
     <use xlink:href="#STHeitiTC-Light-20" transform="translate(199.999969 0)"/>
     <use xlink:href="#STHeitiTC-Light-2d" transform="translate(224.999954 0)"/>
     <use xlink:href="#STHeitiTC-Light-20" transform="translate(258.199951 0)"/>
     <use xlink:href="#STHeitiTC-Light-9500" transform="translate(283.199936 0)"/>
     <use xlink:href="#STHeitiTC-Light-552e" transform="translate(383.199921 0)"/>
     <use xlink:href="#STHeitiTC-Light-989d" transform="translate(483.199905 0)"/>
    </g>
   </g>
  </g>
 </g>
 <defs>
  <clipPath id="p761dcb8443">
   <rect x="33.2875" y="21.25" width="528.32" height="301.404435"/>
  </clipPath>
 </defs>
</svg>
