<svg xmlns="http://www.w3.org/2000/svg" viewBox="0 0 192 192" fill="none">
  <rect width="192" height="192" rx="24" fill="#165DFF"/>
  <path d="M96 40C68.4 40 46 62.4 46 90C46 117.6 68.4 140 96 140C123.6 140 146 117.6 146 90C146 62.4 123.6 40 96 40Z" fill="#fff" fill-opacity="0.2"/>
  <path d="M96 60C78.3 60 64 74.3 64 92C64 109.7 78.3 124 96 124C113.7 124 128 109.7 128 92C128 74.3 113.7 60 96 60Z" fill="#fff"/>
  <circle cx="96" cy="92" r="16" fill="#5AC8FA"/>
  <path d="M88 92L92 96L100 88" stroke="#fff" stroke-width="3" stroke-linecap="round" stroke-linejoin="round"/>
</svg>
